<?xml version="1.0" encoding="UTF-8"?>
<svg xmlns="http://www.w3.org/2000/svg" width="777" height="770" viewBox="0 0 777 770" fill="none">
  <circle cx="633.331" cy="230.806" r="76.5926" stroke="#1877F2" stroke-width="3.50806"></circle>
  <g filter="url(#filter0_f_249_996)">
    <path d="M711.677 230.221C711.677 273.852 676.562 309.153 633.33 309.153C590.099 309.153 554.983 273.852 554.983 230.221C554.983 186.591 590.099 151.29 633.33 151.29C676.562 151.29 711.677 186.591 711.677 230.221Z" stroke="#1877F2" stroke-width="11.6935"></path>
  </g>
  <circle cx="537.443" cy="145.443" r="120.443" stroke="#1877F2" stroke-width="29.2338"></circle>
  <g filter="url(#filter1_f_249_996)">
    <circle cx="537.443" cy="145.443" r="120.443" stroke="#FCFDFF" stroke-width="5.84676"></circle>
  </g>
  <g opacity="0.13">
    <path d="M32.8875 257.993C17.6245 300.356 9.66453 345.554 10.6375 390.712C10.5685 435.924 19.7485 480.999 36.0935 523.129C68.7015 607.553 132.752 679.44 213.189 721.789C253.415 743.274 297.301 757.056 342.589 762.424C365.168 764.808 387.989 766.165 410.75 765.069C433.466 763.521 456.14 760.644 478.322 755.314C567.239 734.53 647.826 680.193 700.971 605.524C648.648 680.755 568.418 736.283 479.035 758.218C456.735 763.835 433.891 766.985 410.97 768.794C388.008 770.164 364.936 769.042 342.055 766.877C296.08 761.925 251.435 748.427 210.419 727.077C128.272 684.974 62.0985 612.498 27.7495 526.407C10.5555 483.469 0.635529 437.306 0.183529 390.88C-1.30947 344.517 6.34853 297.866 21.6255 253.98C22.1642 252.506 23.2607 251.303 24.6783 250.631C26.096 249.959 27.7211 249.871 29.2029 250.386C30.6848 250.902 31.9045 251.979 32.5989 253.386C33.2933 254.793 33.4067 256.417 32.9145 257.907L32.8875 257.993Z" fill="#1877F2"></path>
    <path d="M746.092 503.125C759.519 462.941 766.547 420.4 765.478 377.901C765.725 335.319 756.888 293.012 742.57 253.06C727.912 212.958 706.698 175.567 679.794 142.413C652.503 109.447 619.882 81.2858 583.286 59.0987C546.646 36.8537 506.579 20.8223 464.707 11.6537L432.976 6.61166C422.4 4.80266 411.617 5.07666 400.94 4.21366C379.54 2.59666 358.02 4.07666 336.757 6.73466C251.44 17.2297 170.54 58.5367 110.723 120.577C169.8 57.8657 250.497 15.3387 336.359 3.77666C357.759 0.844665 379.459 -0.895336 401.067 0.476664C411.849 1.23066 422.755 0.846664 433.455 2.54566L465.597 7.25866C508.154 16.0686 548.961 31.8541 586.369 53.9767C623.866 76.1253 657.386 104.402 685.535 137.633C713.411 171.187 735.523 209.136 750.969 249.933C766.108 290.665 775.669 333.987 775.932 377.719C777.521 421.356 770.808 465.239 757.432 506.875C756.947 508.384 755.882 509.64 754.471 510.364C753.061 511.089 751.42 511.223 749.91 510.738C748.4 510.253 747.145 509.188 746.421 507.778C745.696 506.367 745.562 504.726 746.047 503.217L746.092 503.125Z" fill="#1877F2"></path>
    <path d="M418.204 725.171C492.635 718.642 562.995 688.351 618.892 638.771C674.513 588.396 712.419 521.439 726.992 447.825C733.882 411.051 734.969 373.425 730.212 336.315C725.22 299.157 714.177 263.067 697.522 229.477C664.736 161.977 608.605 106.459 541.522 72.4531C609.039 105.553 666.212 160.494 700.176 228.134C717.454 261.869 729.098 298.204 734.647 335.698C739.979 373.297 739.375 411.5 732.857 448.911C718.95 524.315 681.099 593.225 624.923 645.411C568.668 696.98 495.492 729.533 419.248 737.082C418.467 737.16 417.678 737.082 416.927 736.855C416.176 736.628 415.478 736.255 414.871 735.757C414.264 735.26 413.761 734.648 413.391 733.956C413.02 733.264 412.79 732.506 412.713 731.725C412.635 730.944 412.713 730.156 412.94 729.405C413.167 728.654 413.54 727.955 414.038 727.348C414.535 726.741 415.147 726.238 415.839 725.868C416.531 725.498 417.289 725.267 418.07 725.19L418.204 725.171Z" fill="#1877F2"></path>
    <path d="M425.564 44.8773C342.072 35.6433 255.333 57.4003 186.895 106.887C118.23 155.743 68.2636 230.754 50.6446 313.712C42.0059 355.3 40.7723 398.085 47.0006 440.101C53.6574 482.151 68.019 522.612 89.3636 559.448C131.357 633.582 202.559 690.057 283.694 716.513C202.271 691.013 130.013 635.227 86.7876 560.956C64.7806 523.971 49.7916 483.241 42.5746 440.813C35.7608 398.242 36.5123 354.803 44.7946 312.493C61.7426 227.878 111.778 150.593 181.637 99.6393C251.237 48.0393 340.387 24.4223 426.866 32.9993C428.443 33.1555 429.893 33.9317 430.898 35.1573C431.902 36.3828 432.379 37.9573 432.223 39.5343C432.066 41.1112 431.29 42.5616 430.065 43.5662C428.839 44.5708 427.265 45.0475 425.688 44.8913L425.564 44.8773Z" fill="#1877F2"></path>
    <path d="M162.194 583.108C208.708 636.719 274.608 673.628 345.331 683.708C362.95 686.284 380.857 687.764 398.681 686.654C416.56 686.503 434.262 683.859 451.84 680.708C486.94 673.762 520.508 659.691 550.84 640.716C612.198 602.031 657.913 542.909 679.915 473.792C701.192 404.992 698.151 328.468 669.174 261.938C699.055 328.057 703.303 404.877 682.774 474.655C661.881 544.405 615.449 606.127 554.042 645.749C523.393 665.533 489.265 680.398 453.397 688.016C435.449 691.496 417.31 694.454 398.951 694.865C380.66 696.235 362.251 694.988 344.066 692.577C271.11 683.192 202.319 646.063 153.216 591C152.684 590.417 152.272 589.733 152.006 588.989C151.739 588.245 151.623 587.455 151.664 586.666C151.705 585.877 151.902 585.104 152.244 584.391C152.586 583.679 153.066 583.041 153.656 582.516C154.246 581.99 154.935 581.587 155.682 581.329C156.429 581.071 157.219 580.964 158.008 581.014C158.797 581.065 159.568 581.271 160.276 581.621C160.984 581.971 161.616 582.458 162.135 583.055L162.194 583.108Z" fill="#1877F2"></path>
    <path d="M604.044 175.47C556.735 125.834 492.068 92.8703 423.606 84.6363C355.39 76.8543 283.777 90.8423 225.425 128.547C167.046 165.361 120.56 222.177 98.6797 288.347C87.4997 321.297 82.4997 356.097 82.2527 390.938C82.6906 425.911 89.1169 460.549 101.253 493.351C88.6245 460.644 81.691 426.015 80.7527 390.966C80.4927 355.975 85.0277 320.832 95.8527 287.403C116.993 220.27 163.206 161.891 222.214 123.503C281.168 84.2233 354.302 68.7033 424.641 75.7423C495.241 83.2093 562.717 116.255 612.614 167.153C613.708 168.285 614.312 169.803 614.293 171.377C614.274 172.952 613.634 174.455 612.513 175.56C611.392 176.665 609.879 177.283 608.305 177.279C606.73 177.275 605.221 176.649 604.106 175.538L604.044 175.47Z" fill="#1877F2"></path>
    <path d="M552.238 577.011C598.587 538.046 630.757 482.038 639.676 421.686C648.623 361.54 636.566 297.722 603.027 246.18C569.678 193.857 518.623 155.275 459.183 137.479C400.161 119.504 334.503 124.244 278.211 150.207C334.082 123.34 400.011 117.394 460.005 134.602C520.096 151.289 573.652 190.487 608.041 242.947C643.211 295.133 656.829 360.595 648.541 422.974C640.321 485.6 607.864 544.526 560.007 586.094C559.417 586.619 558.728 587.022 557.981 587.279C557.234 587.536 556.443 587.642 555.655 587.591C554.866 587.541 554.096 587.334 553.388 586.984C552.68 586.633 552.048 586.146 551.53 585.549C551.012 584.953 550.617 584.26 550.368 583.51C550.119 582.76 550.022 581.968 550.082 581.181C550.141 580.393 550.356 579.625 550.715 578.921C551.073 578.217 551.568 577.591 552.17 577.079L552.238 577.011Z" fill="#1877F2"></path>
    <path d="M218.711 196.873C174.006 236.495 143.711 292.353 135.877 351.978C128.277 411.384 140.645 474.065 174.061 524.678C207.338 575.989 257.687 613.88 316.205 631.651C374.337 649.451 438.977 645.42 494.821 620.551C438.59 646.483 374.934 651.436 315.369 634.512C256.182 617.824 203.407 579.394 169.069 527.948C134.036 476.721 120.103 412.438 126.981 350.839C134.092 288.98 164.576 230.232 210.692 188.006C211.859 186.932 213.405 186.365 214.989 186.431C216.574 186.497 218.068 187.189 219.142 188.356C220.216 189.523 220.783 191.069 220.717 192.653C220.651 194.238 219.959 195.732 218.792 196.806L218.711 196.873Z" fill="#1877F2"></path>
  </g>
  <g opacity="0.8">
    <path d="M236.082 107.445H529.043C538.294 107.445 545.793 114.945 545.793 124.195V660.657C545.793 669.908 538.294 677.407 529.043 677.407H236.082C226.831 677.407 219.332 669.908 219.332 660.657V124.195C219.332 114.945 226.831 107.445 236.082 107.445Z" fill="url(#paint0_linear_249_996)" stroke="#1877F2" stroke-width="2.5"></path>
    <path d="M529.043 106.695H236.082C226.417 106.695 218.582 114.53 218.582 124.195V660.657C218.582 670.322 226.417 678.157 236.082 678.157H529.043C538.708 678.157 546.543 670.322 546.543 660.657V124.195C546.543 114.53 538.708 106.695 529.043 106.695Z" stroke="#1877F2"></path>
  </g>
  <g opacity="0.07">
    <path d="M537.338 469.812H429.338L334.848 564.326L388.839 618.317L537.338 469.812Z" fill="#1877F2"></path>
    <path d="M307.842 537.317L253.828 483.304L429.339 307.793H537.339L307.842 537.317Z" fill="#1877F2"></path>
    <path d="M388.844 618.314L429.344 658.814H537.344L442.833 564.324L388.844 618.314Z" fill="#1877F2"></path>
    <path d="M388.844 618.314L468.944 590.587L442.833 564.324L388.844 618.314Z" fill="#1877F2"></path>
    <path d="M388.833 510.305L334.84 564.297L388.833 618.29L442.821 564.297L388.833 510.305Z" fill="#1877F2"></path>
  </g>
  <path d="M455.2 326.48H399.536L350.836 375.19L378.664 403.016L455.2 326.48Z" fill="#1877F2"></path>
  <path d="M336.92 361.272L309.082 333.434L399.537 242.979H455.201L336.92 361.272Z" fill="#1877F2"></path>
  <path d="M378.668 403.017L399.538 423.889H455.202L406.492 375.189L378.668 403.017Z" fill="#1B6CD4"></path>
  <path d="M378.668 403.017L419.949 388.727L406.492 375.191L378.668 403.017Z" fill="#0C4691"></path>
  <path d="M378.663 347.35L350.836 375.176L378.663 403.004L406.49 375.176L378.663 347.35Z" fill="#1B6CD5"></path>
  <path d="M303.082 463.031H326.037V467.526H307.751V481.098H324.251V485.549H307.751V502.743H303.082V463.031Z" fill="#1877F2"></path>
  <path d="M331.578 463.031H336.291V502.698H331.578V463.031Z" fill="#1877F2"></path>
  <path d="M345.761 500.606C343.972 498.599 343.055 495.806 343.055 492.227V474.422H347.768V491.485C347.768 494.191 348.379 496.154 349.601 497.42C350.247 498.058 351.02 498.554 351.869 498.877C352.718 499.2 353.625 499.342 354.532 499.296C356.038 499.312 357.514 498.871 358.765 498.031C359.988 497.185 360.979 496.044 361.645 494.714C362.323 493.376 362.667 491.894 362.645 490.394V474.422H367.402V502.701H362.907V498.601H362.689C361.804 500.101 360.52 501.325 358.98 502.136C357.334 503.083 355.468 503.58 353.569 503.576C350.126 503.617 347.551 502.613 345.761 500.606Z" fill="#1877F2"></path>
  <path d="M382.331 503.05C381.415 502.698 380.572 502.181 379.844 501.523C379.103 500.836 378.535 499.984 378.187 499.036C377.796 497.928 377.604 496.761 377.62 495.588V478.699H372.688V474.422H377.62V466.436H382.331V474.422H389.232V478.699H382.38V494.453C382.292 495.679 382.598 496.902 383.253 497.944C383.632 498.373 384.104 498.71 384.634 498.929C385.163 499.149 385.736 499.244 386.307 499.209C387.414 499.207 388.494 498.873 389.408 498.249V502.831C388.862 503.078 388.292 503.268 387.708 503.398C386.989 503.534 386.257 503.592 385.525 503.573C384.437 503.606 383.352 503.429 382.331 503.05Z" fill="#1877F2"></path>
  <path d="M402.321 503.05C401.404 502.698 400.561 502.181 399.833 501.523C399.091 500.836 398.523 499.984 398.174 499.036C397.784 497.928 397.592 496.761 397.607 495.588V478.699H392.719V474.422H397.651V466.436H402.366V474.422H409.217V478.699H402.366V494.453C402.278 495.679 402.584 496.902 403.239 497.944C403.618 498.373 404.09 498.711 404.62 498.93C405.149 499.149 405.722 499.244 406.294 499.209C407.4 499.208 408.48 498.873 409.394 498.249V502.831C408.848 503.078 408.279 503.268 407.694 503.398C406.975 503.534 406.243 503.592 405.512 503.573C404.425 503.602 403.342 503.425 402.321 503.05Z" fill="#1877F2"></path>
  <path d="M419.033 501.653C416.897 500.361 415.161 498.503 414.015 496.285C412.786 493.915 412.17 491.274 412.226 488.604C412.198 485.99 412.781 483.405 413.926 481.054C415.009 478.827 416.666 476.928 418.726 475.554C420.868 474.168 423.375 473.454 425.926 473.503C428.456 473.432 430.953 474.083 433.126 475.379C435.141 476.598 436.762 478.37 437.796 480.485C438.912 482.812 439.465 485.368 439.411 487.947C439.429 488.434 439.37 488.92 439.236 489.387H416.895C416.932 491.298 417.474 493.165 418.466 494.798C419.314 496.211 420.538 497.36 422.002 498.115C423.376 498.834 424.903 499.208 426.453 499.206C430.075 499.206 432.868 497.504 434.833 494.1L438.804 496.02C437.65 498.23 435.934 500.096 433.829 501.431C431.554 502.802 428.936 503.499 426.28 503.438C423.737 503.619 421.202 502.994 419.033 501.653ZM434.439 485.594C434.352 484.36 434.011 483.157 433.439 482.059C432.787 480.829 431.824 479.791 430.646 479.048C429.2 478.18 427.531 477.755 425.846 477.826C423.761 477.765 421.736 478.534 420.217 479.964C418.649 481.48 417.595 483.449 417.204 485.594H434.439Z" fill="#1877F2"></path>
  <path d="M444.91 474.465H449.41V479.004H449.628C450.235 477.381 451.373 476.012 452.857 475.12C454.319 474.107 456.053 473.559 457.832 473.549C458.968 473.524 460.096 473.732 461.148 474.16V479.222C459.914 478.616 458.552 478.316 457.177 478.349C455.835 478.343 454.524 478.755 453.425 479.527C452.268 480.336 451.325 481.415 450.676 482.669C449.998 483.975 449.654 485.43 449.676 486.902V502.741H444.962V474.465H444.91Z" fill="#1877F2"></path>
  <defs>
    <filter id="filter0_f_249_996" x="517.681" y="113.988" width="231.298" height="232.468" filterUnits="userSpaceOnUse" color-interpolation-filters="sRGB">
      <feFlood flood-opacity="0" result="BackgroundImageFix"></feFlood>
      <feBlend mode="normal" in="SourceGraphic" in2="BackgroundImageFix" result="shape"></feBlend>
      <feGaussianBlur stdDeviation="15.7278" result="effect1_foregroundBlur_249_996"></feGaussianBlur>
    </filter>
    <filter id="filter1_f_249_996" x="400.163" y="8.16088" width="274.561" height="274.565" filterUnits="userSpaceOnUse" color-interpolation-filters="sRGB">
      <feFlood flood-opacity="0" result="BackgroundImageFix"></feFlood>
      <feBlend mode="normal" in="SourceGraphic" in2="BackgroundImageFix" result="shape"></feBlend>
      <feGaussianBlur stdDeviation="6.95765" result="effect1_foregroundBlur_249_996"></feGaussianBlur>
    </filter>
    <linearGradient id="paint0_linear_249_996" x1="227.622" y1="106.195" x2="704.519" y2="401.503" gradientUnits="userSpaceOnUse">
      <stop stop-color="#3B2E0A"></stop>
      <stop offset="1" stop-color="#161103"></stop>
    </linearGradient>
  </defs>
</svg>
